<svg id="Layer_1" data-name="Layer 1" xmlns="http://www.w3.org/2000/svg" viewBox="0 0 520 520"><defs><style>.cls-1{fill:#02f2be;}.cls-2{font-size:373px;fill:#00a896;font-family:LeagueSpartan-SemiBold, League Spartan;font-weight:600;letter-spacing:-0.03em;}.cls-3{letter-spacing:0em;}</style></defs><path class="cls-1" d="M294.79,416.92q-8,0-12.78,7.07t-4.8,19.15v7.54q0,12.24,4.8,19.23a14.92,14.92,0,0,0,12.92,7q17.15,0,17.65-24.76v-8.94q0-12.15-4.83-19.22T294.79,416.92Z" transform="translate(0)"/><path class="cls-1" d="M443.54,416.92q-8.06,0-11.94,5.53t-4.39,17.17h31.2v-1.75q-.51-11.28-4.06-16.12T443.54,416.92Z" transform="translate(0)"/><path class="cls-1" d="M369.42,417.29q-8.94,0-12.89,6.25t-4,19.2v7.9q0,13.32,4,19.57t12.89,6.26q9.66,0,14.43-9.73V426.8Q378.8,417.29,369.42,417.29Z" transform="translate(0)"/><path class="cls-1" d="M260,0C116.41,0,0,116.41,0,260S116.41,520,260,520H520V260C520,116.41,403.59,0,260,0ZM212.13,471.12q4.14,5.79,13.08,5.79a13.7,13.7,0,0,0,10.32-4q3.89-4,4.25-11.39H252a27,27,0,0,1-8.09,18.94,25.72,25.72,0,0,1-18.71,7.5q-14.73,0-22.45-9.26T195,451.12v-8.71q0-17.94,7.69-27.28t22.41-9.34q12.17,0,19.3,7.69t7.58,21H239.78q-.43-8.79-4.21-13.19c-2.52-2.93-6-4.39-10.44-4.39q-8.64,0-12.81,5.68T208,441.24v10.1Q208,465.34,212.13,471.12Zm113.42-20.44q0,17.22-8.35,27.25t-22.27,10q-13.77,0-22.08-9.74t-8.6-26.36v-8.65q0-17.28,8.38-27.35t22.16-10.07q13.77,0,22.15,9.81t8.61,26.73Zm71.19,35.82H384.88l-.66-8.5A20.41,20.41,0,0,1,366,488q-12.3,0-19.3-9.55t-7.14-27v-8.13q0-18.32,6.85-27.91t19.66-9.59A20.35,20.35,0,0,1,383.78,415V374h13Zm74.63-35.74H427.14v1.83q0,12.74,4.79,18.53t13.81,5.79a22.27,22.27,0,0,0,10.07-2.17A25,25,0,0,0,464,467.9l6.73,8.2Q462.3,488,445,488q-14.81,0-22.71-8.82t-8.05-25.89v-9.6q0-17.72,7.72-27.79t21.57-10.07q13.92,0,20.8,8.86t7,27.61Zm29.45,30.32a33.38,33.38,0,0,1-3.63,14.8,34.47,34.47,0,0,1-9.12,11.86l-7.69-5.27q6.89-9.6,7.18-19.78V470.46h13.26Zm-.48-60.72c-1.44,1.52-3.55,2.27-6.33,2.27s-4.88-.75-6.27-2.27a8,8,0,0,1-2.08-5.64,8.51,8.51,0,0,1,2.08-5.86q2.08-2.34,6.27-2.34t6.33,2.34a8.34,8.34,0,0,1,2.16,5.86A7.85,7.85,0,0,1,500.34,420.36Z" transform="translate(0)"/><text class="cls-2" transform="translate(9 327.62)">W<tspan class="cls-3" x="316.3" y="0">e</tspan></text></svg>